<svg width="16" height="16" viewBox="0 0 16 16" fill="none" xmlns="http://www.w3.org/2000/svg">
<path d="M7.75 0.5C7.79972 0.5 7.84791 0.514815 7.88867 0.541992L7.92676 0.573242C7.97364 0.620127 8 0.683697 8 0.75V3.5H12.1338C12.3922 3.5 12.6433 3.5805 12.8535 3.72852L12.9414 3.7959L15.0107 5.5459C15.1494 5.66319 15.2614 5.80892 15.3379 5.97363C15.4143 6.13844 15.4541 6.31833 15.4541 6.5C15.4541 6.68167 15.4143 6.86156 15.3379 7.02637C15.2805 7.15005 15.2029 7.26296 15.1094 7.36133L15.0107 7.4541L12.9414 9.2041C12.7158 9.39499 12.4293 9.49995 12.1338 9.5H8V15.25C8 15.3163 7.97364 15.3799 7.92676 15.4268C7.87987 15.4736 7.8163 15.5 7.75 15.5C7.6837 15.5 7.62013 15.4736 7.57324 15.4268C7.52636 15.3799 7.5 15.3163 7.5 15.25V9.5H2.75C2.41848 9.5 2.10063 9.36821 1.86621 9.13379C1.63179 8.89937 1.5 8.58152 1.5 8.25V4.75C1.5 4.06014 2.06014 3.5 2.75 3.5H7.5V0.75C7.5 0.700282 7.51482 0.652094 7.54199 0.611328L7.57324 0.573242C7.60844 0.538041 7.65306 0.514468 7.70117 0.504883L7.75 0.5ZM2.75 4C2.60085 4 2.45628 4.04445 2.33398 4.12598L2.21973 4.21973C2.07907 4.36038 2 4.55109 2 4.75V8.25C2 8.66414 2.33586 9 2.75 9H12.1367C12.3129 8.99895 12.4829 8.93525 12.6172 8.82129L12.6182 8.82227L14.6875 7.07227L14.6904 7.07031C14.7727 6.99992 14.8385 6.91183 14.8838 6.81348C14.929 6.71516 14.9521 6.60824 14.9521 6.5C14.9521 6.41886 14.9397 6.33832 14.9141 6.26172L14.8838 6.18652L14.8457 6.11426C14.8181 6.06829 14.7857 6.02539 14.749 5.98633L14.6904 5.92969L14.6875 5.92773L12.6182 4.17773H12.6172C12.5168 4.09272 12.3965 4.0363 12.2686 4.0127L12.1367 4H2.75Z" stroke="#6E7191"/>
</svg>
